<svg width="152" height="43" viewBox="0 0 152 43" fill="none" xmlns="http://www.w3.org/2000/svg">
<g clip-path="url(#clip0_590_13164)">
<path d="M19.547 14.9233C18.7402 14.9233 18.3655 14.5492 18.0954 14.0096C17.5587 12.9339 16.1071 12.1857 13.3659 12.1857C10.4626 12.1857 8.95699 13.1534 8.95699 14.3873C8.95699 18.8949 26.589 14.0671 26.589 24.8558C26.589 30.9211 21.2688 34.0904 13.474 34.0904C6.54002 34.0904 1.43231 32.2665 0.575026 26.4135C0.466964 25.9314 0.412934 25.1256 1.59441 25.1256H7.18478C8.0997 25.1256 8.42029 25.4494 8.7985 26.0394C9.44327 27.3812 10.8409 28.0251 13.8522 28.0251C17.13 28.0251 18.6897 26.8991 18.6897 25.6652C18.6897 20.9958 0.737118 26.0933 0.737118 15.1967C0.737118 9.5056 5.14602 6.12402 13.7441 6.12402C20.0873 6.12402 24.6547 8.27168 25.7317 13.5851C25.8398 14.0132 26.0019 14.9269 24.6583 14.9269H19.5506L19.547 14.9233Z" fill="#EB9DC8"/>
<path d="M30.7274 43.0009C30.1907 43.0009 29.708 42.5188 29.708 41.9828V7.56988C29.708 7.03386 30.1907 6.54821 30.7274 6.54821H36.6419C37.1787 6.54821 37.6073 7.03027 37.6073 7.56988V9.44773C39.4335 7.30007 42.1243 6.12012 45.2941 6.12012C52.3901 6.12012 57.8184 12.0775 57.8184 20.0781C57.8184 28.0788 52.3901 34.0901 45.2941 34.0901C42.1783 34.0901 39.6497 32.9101 37.8774 30.9244V41.9828C37.8774 42.5188 37.4488 43.0009 36.9085 43.0009H30.7274ZM49.9695 20.0781C49.9695 16.3188 47.1743 13.5812 43.7884 13.5812C40.4025 13.5812 37.6073 16.2649 37.6073 20.0781C37.6073 23.8914 40.4025 26.6794 43.7884 26.6794C47.1743 26.6794 49.9695 23.8878 49.9695 20.0781Z" fill="#14A44A"/>
<path d="M62.1109 33.6584C61.5741 33.6584 61.1455 33.1763 61.1455 32.6367V7.56988C61.1455 7.03386 61.5741 6.54821 62.1109 6.54821H68.0254C68.5621 6.54821 69.0448 7.03027 69.0448 7.56988V9.0736C70.0137 7.46196 71.948 6.12012 74.6352 6.12012C76.0868 6.12012 78.3309 6.81802 78.7055 7.73176C78.8135 7.94761 78.8135 8.21382 78.5434 8.64551L75.2259 13.6351C74.9558 14.0632 74.5811 14.1712 74.2065 14.1172C73.6698 14.0632 73.1295 13.8474 72.5928 13.8474C70.5505 13.8474 69.2609 15.5094 69.2609 18.0348V32.6367C69.2609 33.1727 68.7782 33.6584 68.2379 33.6584H62.1109Z" fill="#FAC72D"/>
<path d="M91.2816 34.0901C83.1661 34.0901 77.0391 28.0788 77.0391 20.0781C77.0391 12.0775 83.1661 6.12012 91.2816 6.12012C99.397 6.12012 105.524 12.0775 105.524 20.0781C105.524 28.0788 99.451 34.0901 91.2816 34.0901ZM97.4086 20.0781C97.4086 16.3188 94.6134 13.6351 91.2816 13.6351C87.9497 13.6351 85.1545 16.3188 85.1545 20.0781C85.1545 23.8374 88.0037 26.6254 91.2816 26.6254C94.5594 26.6254 97.4086 23.8878 97.4086 20.0781Z" fill="#87C77D"/>
<path d="M125.913 33.658C125.376 33.658 124.893 33.176 124.893 32.6364V30.2765C124.032 31.8341 121.561 34.0861 117.585 34.0861C112.048 34.0861 108.608 30.6506 108.608 24.7472V7.56952C108.608 7.0335 109.091 6.54785 109.628 6.54785H115.755C116.292 6.54785 116.724 7.02991 116.724 7.56952V23.2435C116.724 25.9811 118.388 27.1107 120.592 27.1107C122.473 27.1107 124.623 25.9847 124.623 23.3514V7.56952C124.623 7.0335 125.106 6.54785 125.646 6.54785H131.827C132.364 6.54785 132.793 7.02991 132.793 7.56952V32.64C132.793 33.176 132.364 33.6616 131.827 33.6616H125.913V33.658Z" fill="#F55240"/>
<path d="M147.141 33.6575C141.605 33.6575 138.864 31.1897 138.864 25.6604V13.422H136.605C136.068 13.422 135.582 12.9939 135.582 12.4579V7.57257C135.582 7.03656 136.065 6.55091 136.605 6.55091H138.864V1.01807C138.864 0.482055 139.292 0 139.829 0H146.01C146.547 0 147.033 0.482055 147.033 1.01807V6.54731H150.743C151.28 6.54731 151.766 7.02936 151.766 7.56898V12.4543C151.766 12.9903 151.283 13.4184 150.743 13.4184H147.033V23.9948C147.033 25.8727 147.732 26.5706 149.666 26.5706H150.793C151.33 26.5706 151.816 27.0526 151.816 27.5922V32.6934C151.816 33.2294 151.334 33.6611 150.793 33.6611H147.137L147.141 33.6575Z" fill="#AF69B5"/>
</g>
<defs>
<clipPath id="clip0_590_13164">
<rect width="151.297" height="43" fill="white" transform="translate(0.517578)"/>
</clipPath>
</defs>
</svg>
